<svg version="1.2" xmlns="http://www.w3.org/2000/svg" viewBox="0 0 512 512" width="512" height="512">
	<style>
		.s0 { fill: #ffffff } 
	</style>
	<path class="s0" d="m511.55 310.62c-2.11-18.79-11.75-35.93-26.44-47.02-4.53-3.42-14.56-9.74-14.97-10l-244.93-152.07-141-88.53 5.29 42.94-60.39-31.37 15.66 52.87-44.77-19.8 42.95 104.06 276.34 130.54 48.83 26.89-18.64 5.75-99.47 16.1 13.98-46.3-148.03-70.44 11.6 31.53-33.63-15.53 19.53 50.84-23.3-6.88 87.27 214.75 13.77-5.4 71.47-28.02 208.41-81.7q4.09-1.7 7.85-3.88l2.13-1.32c12.89-8.24 22.39-21.01 26.6-35.81 3.72-9.98 5.16-20.98 3.89-32.2zm-290.21 81l-36.51-79.46-61.59-18.19-0.05-0.01-14.55-38 110.58 51.08 9.09 63.66 121.17-37.35zm212.29-142.1l-378.43-167.45-12.92-41.53 423.68 219.99c1.24 0.79 10.29 6.52 14.27 9.53q0.01 0.01 0.02 0.02z"/>
</svg>